<?xml version="1.0" encoding="UTF-8"?>
<!-- Generated by Pixelmator Pro 3.3.2 -->
<svg width="3300" height="2200" viewBox="0 0 3300 2200" xmlns="http://www.w3.org/2000/svg" xmlns:xlink="http://www.w3.org/1999/xlink">
    <g id="Notes">
        <path id="artboard" fill="#ffffff" stroke="none" d="M 0 0 L 3300 0 L 3300 2200 L 0 2200 Z"/>
        <path id="Trac" fill="none" stroke="#000000" stroke-width="0.5" d="M 263 292 L 3036 292"/>
        <text id="WeightScale-Variations" xml:space="preserve" x="263" y="322" font-family="Helvetica" font-size="13" font-weight="700" fill="#000000">Weight/Scale Variations</text>
        <text id="Ultralight" xml:space="preserve" x="560" y="322" text-anchor="middle" font-family="Helvetica" font-size="13" fill="#000000">Ultralight</text>
        <text id="Thin" xml:space="preserve" x="856" y="322" text-anchor="middle" font-family="Helvetica" font-size="13" fill="#000000">Thin</text>
        <text id="Light" xml:space="preserve" x="1153.5" y="322" text-anchor="middle" font-family="Helvetica" font-size="13" fill="#000000">Light</text>
        <text id="Regular" xml:space="preserve" x="1450" y="322" text-anchor="middle" font-family="Helvetica" font-size="13" fill="#000000">Regular</text>
        <text id="Medium" xml:space="preserve" x="1746.5" y="322" text-anchor="middle" font-family="Helvetica" font-size="13" fill="#000000">Medium</text>
        <text id="Semibold" xml:space="preserve" x="2043.5" y="322" text-anchor="middle" font-family="Helvetica" font-size="13" fill="#000000">Semibold</text>
        <text id="Bold" xml:space="preserve" x="2339.5" y="322" text-anchor="middle" font-family="Helvetica" font-size="13" fill="#000000">Bold</text>
        <text id="Heavy" xml:space="preserve" x="2636.5" y="322" text-anchor="middle" font-family="Helvetica" font-size="13" fill="#000000">Heavy</text>
        <text id="Black" xml:space="preserve" x="2933" y="322" text-anchor="middle" font-family="Helvetica" font-size="13" fill="#000000">Black</text>
        <path id="path1" fill="none" stroke="#000000" stroke-width="0.5" d="M 263 1903 L 3036 1903"/>
        <g id="Associer">
            <path id="path2" fill="#000000" stroke="none" d="M 272.248047 1933.830078 C 276.554688 1933.830078 280.138702 1930.255859 280.138702 1925.949219 C 280.138702 1921.642578 276.544891 1918.068359 272.238281 1918.068359 C 267.941406 1918.068359 264.367188 1921.642578 264.367188 1925.949219 C 264.367188 1930.255859 267.951172 1933.830078 272.248047 1933.830078 Z M 272.248047 1932.345703 C 268.703125 1932.345703 265.871094 1929.503906 265.871094 1925.949219 C 265.871094 1922.394531 268.693359 1919.552734 272.238281 1919.552734 C 275.792999 1919.552734 278.644501 1922.394531 278.644501 1925.949219 C 278.644501 1929.503906 275.802704 1932.345703 272.248047 1932.345703 Z M 268.654297 1925.949219 C 268.654297 1926.378906 268.957031 1926.671875 269.40625 1926.671875 L 271.505859 1926.671875 L 271.505859 1928.791016 C 271.505859 1929.230469 271.798828 1929.533203 272.228516 1929.533203 C 272.677734 1929.533203 272.970703 1929.230469 272.970703 1928.791016 L 272.970703 1926.671875 L 275.089813 1926.671875 C 275.529297 1926.671875 275.832001 1926.378906 275.832001 1925.949219 C 275.832001 1925.509766 275.529297 1925.207031 275.089813 1925.207031 L 272.970703 1925.207031 L 272.970703 1923.097656 C 272.970703 1922.648438 272.677734 1922.345703 272.228516 1922.345703 C 271.798828 1922.345703 271.505859 1922.648438 271.505859 1923.097656 L 271.505859 1925.207031 L 269.40625 1925.207031 C 268.957031 1925.207031 268.654297 1925.509766 268.654297 1925.949219 Z"/>
        </g>
        <g id="g1">
            <path id="path3" fill="#000000" stroke="none" d="M 293.575989 1935.910156 C 299.025208 1935.910156 303.536896 1931.388672 303.536896 1925.949219 C 303.536896 1920.5 299.015411 1915.988281 293.566193 1915.988281 C 288.12677 1915.988281 283.615051 1920.5 283.615051 1925.949219 C 283.615051 1931.388672 288.136536 1935.910156 293.575989 1935.910156 Z M 293.575989 1934.25 C 288.966614 1934.25 285.284973 1930.558594 285.284973 1925.949219 C 285.284973 1921.339844 288.956848 1917.648438 293.566193 1917.648438 C 298.175598 1917.648438 301.876801 1921.339844 301.876801 1925.949219 C 301.876801 1930.558594 298.185394 1934.25 293.575989 1934.25 Z M 289.044739 1925.949219 C 289.044739 1926.427734 289.37677 1926.75 289.874817 1926.75 L 292.745911 1926.75 L 292.745911 1929.630859 C 292.745911 1930.119141 293.077911 1930.460938 293.556488 1930.460938 C 294.044708 1930.460938 294.386505 1930.128906 294.386505 1929.630859 L 294.386505 1926.75 L 297.267395 1926.75 C 297.755707 1926.75 298.097504 1926.427734 298.097504 1925.949219 C 298.097504 1925.460938 297.755707 1925.119141 297.267395 1925.119141 L 294.386505 1925.119141 L 294.386505 1922.248047 C 294.386505 1921.75 294.044708 1921.408203 293.556488 1921.408203 C 293.077911 1921.408203 292.745911 1921.75 292.745911 1922.248047 L 292.745911 1925.119141 L 289.874817 1925.119141 C 289.37677 1925.119141 289.044739 1925.460938 289.044739 1925.949219 Z"/>
        </g>
        <g id="g2">
            <path id="path4" fill="#000000" stroke="none" d="M 320.616699 1938.664063 C 327.57959 1938.664063 333.341309 1932.902344 333.341309 1925.949219 C 333.341309 1918.986328 327.569794 1913.224609 320.606903 1913.224609 C 313.653809 1913.224609 307.901855 1918.986328 307.901855 1925.949219 C 307.901855 1932.902344 313.663574 1938.664063 320.616699 1938.664063 Z M 320.616699 1936.847656 C 314.581543 1936.847656 309.728027 1931.984375 309.728027 1925.949219 C 309.728027 1919.904297 314.571777 1915.050781 320.606903 1915.050781 C 326.651886 1915.050781 331.515106 1919.904297 331.515106 1925.949219 C 331.515106 1931.984375 326.661591 1936.847656 320.616699 1936.847656 Z M 314.845215 1925.949219 C 314.845215 1926.466797 315.216309 1926.828125 315.763214 1926.828125 L 319.708496 1926.828125 L 319.708496 1930.783203 C 319.708496 1931.320313 320.07959 1931.701172 320.597198 1931.701172 C 321.134308 1931.701172 321.505402 1931.330078 321.505402 1930.783203 L 321.505402 1926.828125 L 325.46051 1926.828125 C 325.997589 1926.828125 326.378387 1926.466797 326.378387 1925.949219 C 326.378387 1925.402344 326.007294 1925.03125 325.46051 1925.03125 L 321.505402 1925.03125 L 321.505402 1921.085938 C 321.505402 1920.539063 321.134308 1920.158203 320.597198 1920.158203 C 320.07959 1920.158203 319.708496 1920.539063 319.708496 1921.085938 L 319.708496 1925.03125 L 315.763214 1925.03125 C 315.216309 1925.03125 314.845215 1925.402344 314.845215 1925.949219 Z"/>
        </g>
        <text id="Design-Variations" xml:space="preserve" x="263" y="1953" font-family="Helvetica" font-size="13" font-weight="700" fill="#000000">Design Variations</text>
        <text id="Symbols-are-supported-in" xml:space="preserve" x="263" y="1971" font-family="Helvetica" font-size="13" fill="#000000">Symbols are supported in up to nine weights and three scales.</text>
        <text id="For-optimal-layout-with" xml:space="preserve" x="263" y="1989" font-family="Helvetica" font-size="13" fill="#000000">For optimal layout with text and other symbols, vertically align</text>
        <text id="symbols-with-the-adjacent" xml:space="preserve" x="263" y="2007" font-family="Helvetica" font-size="13" fill="#000000">symbols with the adjacent text.</text>
        <path id="path5" fill="none" stroke="#00aeef" stroke-width="0.5" d="M 776 1919 L 776 1933"/>
        <g id="g3">
            <path id="path6" fill="#000000" stroke="none" d="M 779.310547 1933.15625 C 779.828125 1933.15625 780.082031 1932.960938 780.267578 1932.414063 L 781.527344 1928.966797 L 787.289124 1928.966797 L 788.548828 1932.414063 C 788.734375 1932.960938 788.988281 1933.15625 789.496094 1933.15625 C 790.013672 1933.15625 790.345703 1932.84375 790.345703 1932.355469 C 790.345703 1932.189453 790.316406 1932.033203 790.238281 1931.828125 L 785.658203 1919.630859 C 785.433594 1919.035156 785.033203 1918.732422 784.408203 1918.732422 C 783.802734 1918.732422 783.392578 1919.025391 783.177734 1919.621094 L 778.597656 1931.837891 C 778.519531 1932.042969 778.490234 1932.199219 778.490234 1932.365234 C 778.490234 1932.853516 778.802734 1933.15625 779.310547 1933.15625 Z M 782.005859 1927.482422 L 784.378906 1920.910156 L 784.427734 1920.910156 L 786.800781 1927.482422 Z"/>
        </g>
        <path id="path7" fill="none" stroke="#00aeef" stroke-width="0.5" d="M 793.197021 1919 L 793.197021 1933"/>
        <text id="Margins" xml:space="preserve" x="776" y="1953" font-family="Helvetica" font-size="13" font-weight="700" fill="#000000">Margins</text>
        <text id="Leading-and-trailing-margins" xml:space="preserve" x="776" y="1971" font-family="Helvetica" font-size="13" fill="#000000">Leading and trailing margins on the left and right side of each symbol</text>
        <text id="can-be-adjusted-by" xml:space="preserve" x="776" y="1989" font-family="Helvetica" font-size="13" fill="#000000">can be adjusted by modifying the x-location of the margin guidelines.</text>
        <text id="Modifications-are-automatically-applied" xml:space="preserve" x="776" y="2007" font-family="Helvetica" font-size="13" fill="#000000">Modifications are automatically applied proportionally to all</text>
        <text id="scales-and-weights" xml:space="preserve" x="776" y="2025" font-family="Helvetica" font-size="13" fill="#000000">scales and weights.</text>
        <g id="g4">
            <path id="path8" fill="#000000" stroke="none" d="M 1291.841797 1934.865234 L 1293.541016 1936.574219 C 1294.400391 1937.443359 1295.386719 1937.384766 1296.314453 1936.359375 L 1307.007813 1924.572266 L 1306.041016 1923.595703 L 1295.425781 1935.275391 C 1295.074219 1935.675781 1294.742188 1935.773438 1294.273438 1935.304688 L 1293.101563 1934.142578 C 1292.632813 1933.683594 1292.740234 1933.341797 1293.140625 1932.980469 L 1304.615234 1922.179688 L 1303.638672 1921.212891 L 1292.046875 1932.101563 C 1291.060547 1933.019531 1290.982422 1933.996094 1291.841797 1934.865234 Z M 1298.257813 1916.671875 C 1297.837891 1917.082031 1297.808594 1917.658203 1298.042969 1918.048828 C 1298.277344 1918.410156 1298.736328 1918.644531 1299.380859 1918.478516 C 1300.845703 1918.136719 1302.369141 1918.078125 1303.794922 1919.015625 L 1303.208984 1920.470703 C 1302.867188 1921.300781 1303.042969 1921.886719 1303.580078 1922.433594 L 1305.875 1924.748047 C 1306.363281 1925.236328 1306.773438 1925.255859 1307.339844 1925.158203 L 1308.404297 1924.962891 L 1309.068359 1925.636719 L 1309.029297 1926.193359 C 1308.990234 1926.691406 1309.117188 1927.072266 1309.605469 1927.550781 L 1310.367188 1928.292969 C 1310.845703 1928.771484 1311.460938 1928.800781 1311.929688 1928.332031 L 1314.839844 1925.412109 C 1315.308594 1924.943359 1315.289063 1924.347656 1314.810547 1923.869141 L 1314.039063 1923.107422 C 1313.560547 1922.628906 1313.189453 1922.472656 1312.710938 1922.511719 L 1312.134766 1922.560547 L 1311.490234 1921.925781 L 1311.734375 1920.802734 C 1311.861328 1920.236328 1311.705078 1919.796875 1311.119141 1919.210938 L 1308.921875 1917.023438 C 1305.582031 1913.703125 1301.148438 1913.78125 1298.257813 1916.671875 Z M 1299.751953 1917.042969 C 1302.183594 1915.265625 1305.474609 1915.568359 1307.701172 1917.794922 L 1310.132813 1920.207031 C 1310.367188 1920.441406 1310.40625 1920.626953 1310.337891 1920.96875 L 1310.015625 1922.453125 L 1311.519531 1923.9375 L 1312.505859 1923.878906 C 1312.759766 1923.869141 1312.837891 1923.888672 1313.033203 1924.083984 L 1313.609375 1924.660156 L 1311.167969 1927.101563 L 1310.591797 1926.525391 C 1310.396484 1926.330078 1310.367188 1926.251953 1310.376953 1925.988281 L 1310.445313 1925.011719 L 1308.951172 1923.527344 L 1307.427734 1923.78125 C 1307.105469 1923.849609 1306.958984 1923.820313 1306.714844 1923.585938 L 1304.712891 1921.583984 C 1304.458984 1921.349609 1304.429688 1921.183594 1304.585938 1920.8125 L 1305.464844 1918.722656 C 1303.902344 1917.267578 1301.871094 1916.642578 1299.839844 1917.238281 C 1299.683594 1917.277344 1299.625 1917.150391 1299.751953 1917.042969 Z"/>
        </g>
        <text id="Exporting" xml:space="preserve" x="1289" y="1953" font-family="Helvetica" font-size="13" font-weight="700" fill="#000000">Exporting</text>
        <text id="Symbols-should-be-outlined" xml:space="preserve" x="1289" y="1971" font-family="Helvetica" font-size="13" fill="#000000">Symbols should be outlined when exporting to ensure the</text>
        <text id="design-is-preserved-when" xml:space="preserve" x="1289" y="1989" font-family="Helvetica" font-size="13" fill="#000000">design is preserved when submitting to Xcode.</text>
        <text id="template-version" xml:space="preserve" x="3036" y="1933" text-anchor="end" font-family="Helvetica" font-size="13" fill="#000000">Template v.4.0</text>
        <text id="Requires-Xcode-14-or" xml:space="preserve" x="3036" y="1951" text-anchor="end" font-family="Helvetica" font-size="13" fill="#000000">Requires Xcode 14 or greater</text>
        <text id="Generated-from-globeeuropeafricafill" xml:space="preserve" x="3036" y="1969" text-anchor="end" font-family="Helvetica" font-size="13" fill="#000000">Generated from globe.europe.africa.fill</text>
        <text id="Typeset-at-100-points" xml:space="preserve" x="3036" y="1987" text-anchor="end" font-family="Helvetica" font-size="13" fill="#000000">Typeset at 100 points</text>
        <text id="Small" xml:space="preserve" x="263" y="726" font-family="Helvetica" font-size="13" fill="#000000">Small</text>
        <text id="text1" xml:space="preserve" x="263" y="1156" font-family="Helvetica" font-size="13" fill="#000000">Medium</text>
        <text id="Large" xml:space="preserve" x="263" y="1586" font-family="Helvetica" font-size="13" fill="#000000">Large</text>
    </g>
    <g id="Guides">
        <g id="H-reference">
            <path id="path9" fill="#27aae1" stroke="none" d="M 339.993652 696 L 342.637756 696 L 368.328094 628.867676 L 369.030304 628.867676 L 369.030304 625.541016 L 367.122589 625.541016 Z M 350.688507 671.520142 L 385.981506 671.520142 L 385.231506 669.271484 L 351.438507 669.271484 Z M 394.119598 696 L 396.763702 696 L 369.638214 625.541016 L 368.432587 625.541016 L 368.432587 628.867676 Z"/>
        </g>
        <path id="Baseline-S" fill="none" stroke="#27aae1" stroke-width="0.5" d="M 263 696 L 3036 696"/>
        <path id="Capline-S" fill="none" stroke="#27aae1" stroke-width="0.5" d="M 263 625.541016 L 3036 625.541016"/>
        <g id="g5">
            <path id="path10" fill="#27aae1" stroke="none" d="M 339.993652 1126 L 342.637756 1126 L 368.328094 1058.867676 L 369.030304 1058.867676 L 369.030304 1055.541016 L 367.122589 1055.541016 Z M 350.688507 1101.520142 L 385.981506 1101.520142 L 385.231506 1099.271484 L 351.438507 1099.271484 Z M 394.119598 1126 L 396.763702 1126 L 369.638214 1055.541016 L 368.432587 1055.541016 L 368.432587 1058.867676 Z"/>
        </g>
        <path id="Baseline-M" fill="none" stroke="#27aae1" stroke-width="0.5" d="M 263 1126 L 3036 1126"/>
        <path id="Capline-M" fill="none" stroke="#27aae1" stroke-width="0.5" d="M 263 1055.540039 L 3036 1055.540039"/>
        <g id="g6">
            <path id="path11" fill="#27aae1" stroke="none" d="M 339.993652 1556 L 342.637756 1556 L 368.328094 1488.867676 L 369.030304 1488.867676 L 369.030304 1485.541016 L 367.122589 1485.541016 Z M 350.688507 1531.52002 L 385.981506 1531.52002 L 385.231506 1529.271484 L 351.438507 1529.271484 Z M 394.119598 1556 L 396.763702 1556 L 369.638214 1485.541016 L 368.432587 1485.541016 L 368.432587 1488.867676 Z"/>
        </g>
        <path id="Baseline-L" fill="none" stroke="#27aae1" stroke-width="0.5" d="M 263 1556 L 3036 1556"/>
        <path id="Capline-L" fill="none" stroke="#27aae1" stroke-width="0.5" d="M 263 1485.540039 L 3036 1485.540039"/>
        <path id="left-margin-Ultralight-S" fill="none" stroke="#00aeef" stroke-width="0.5" d="M 515.648987 600.784912 L 515.648987 720.120972"/>
        <path id="right-margin-Ultralight-S" fill="none" stroke="#00aeef" stroke-width="0.5" d="M 603.77301 600.784912 L 603.77301 720.120972"/>
        <path id="left-margin-Regular-S" fill="none" stroke="#00aeef" stroke-width="0.5" d="M 1403.579956 600.784912 L 1403.579956 720.120972"/>
        <path id="right-margin-Regular-S" fill="none" stroke="#00aeef" stroke-width="0.5" d="M 1496.109985 600.784912 L 1496.109985 720.120972"/>
        <path id="left-margin-Black-S" fill="none" stroke="#00aeef" stroke-width="0.5" d="M 2884.570068 600.784912 L 2884.570068 720.120972"/>
        <path id="right-margin-Black-S" fill="none" stroke="#00aeef" stroke-width="0.5" d="M 2982.22998 600.784912 L 2982.22998 720.120972"/>
    </g>
    <g id="Symbols">
        <g id="Black-S">
            <path id="path12" fill="#000000" stroke="none" d="M 2967.263184 655.095459 C 2967.229492 654.272095 2966.702393 653.550171 2965.927979 653.267578 L 2926.408203 641.027954 C 2925.671387 640.800415 2925.334229 641.192139 2925.658691 641.895508 L 2933.008301 658.039673 C 2933.33252 658.747192 2934.170654 659.585327 2934.869873 659.905396 L 2944.953125 664.521729 C 2945.652344 664.841797 2945.669189 665.401978 2944.986816 665.76416 L 2901.967041 688.642822 C 2901.288818 689.005005 2901.200439 688.878662 2901.773193 688.360596 L 2918.300537 673.476074 C 2918.924561 672.846802 2919.296143 672.010498 2919.345215 671.125854 L 2919.361816 626.008423 C 2919.328125 625.182739 2918.799072 624.459229 2918.022705 624.176392 L 2901.482666 619.05896 C 2900.745605 618.831543 2900.143311 619.282227 2900.143311 620.061401 L 2900.143311 688.503906 C 2900.143311 689.282959 2900.657227 690.285522 2901.288818 690.731934 L 2918.094238 702.638794 C 2918.72583 703.085205 2919.778809 703.123047 2920.440186 702.723022 L 2966.062988 675.249146 C 2966.774414 674.763306 2967.219727 673.974243 2967.267578 673.113892 L 2967.267578 655.095459 Z"/>
        </g>
        <g id="Regular-S">
            <path id="path13" fill="#000000" stroke="none" d="M 1481.108154 654.860962 C 1481.076538 654.088501 1480.582031 653.411377 1479.855713 653.14624 L 1442.782349 641.664307 C 1442.090942 641.450928 1441.774902 641.818359 1442.079102 642.478271 L 1448.973755 657.622925 C 1449.278076 658.286621 1450.064331 659.072876 1450.720215 659.373169 L 1460.179077 663.703735 C 1460.834961 664.003906 1460.85083 664.529419 1460.210815 664.869263 L 1419.854126 686.331665 C 1419.218018 686.671387 1419.13501 686.552856 1419.672363 686.066895 L 1435.176514 672.10376 C 1435.761841 671.513428 1436.110474 670.728882 1436.156372 669.899048 L 1436.172241 627.574585 C 1436.140503 626.800049 1435.644287 626.121216 1434.915771 625.855835 L 1419.399658 621.055298 C 1418.708374 620.841919 1418.143311 621.264771 1418.143311 621.995605 L 1418.143311 686.201294 C 1418.143311 686.932129 1418.625244 687.872559 1419.218018 688.291382 L 1434.98291 699.461182 C 1435.575562 699.880005 1436.563354 699.915527 1437.183716 699.540161 L 1479.982178 673.76709 C 1480.649658 673.311279 1481.067383 672.571045 1481.112183 671.763916 L 1481.112183 654.860962 Z"/>
        </g>
        <g id="Ultralight-S">
            <path id="path14" fill="#000000" stroke="none" d="M 589.272766 655.798462 C 589.243103 655.072998 588.778625 654.437012 588.096558 654.18811 L 553.281555 643.405518 C 552.632263 643.2052 552.335388 643.550171 552.621155 644.169922 L 559.095764 658.39209 C 559.381531 659.015381 560.119873 659.753662 560.735779 660.035645 L 569.618591 664.102417 C 570.234497 664.384399 570.24939 664.87793 569.648315 665.197021 L 531.749878 685.352051 C 531.152527 685.671143 531.074646 685.559814 531.579224 685.103394 L 546.138977 671.990845 C 546.688599 671.436401 547.016052 670.699707 547.059204 669.92041 L 547.073975 630.174072 C 547.04425 629.446777 546.578186 628.809326 545.894104 628.560059 L 531.323181 624.052002 C 530.673889 623.851563 530.143311 624.248657 530.143311 624.935059 L 530.143311 685.229614 C 530.143311 685.916016 530.595947 686.799194 531.152527 687.192383 L 545.957153 697.681763 C 546.513733 698.075073 547.441345 698.108398 548.023865 697.755981 L 588.215332 673.552856 C 588.842224 673.124756 589.234436 672.429688 589.276489 671.671753 L 589.276489 655.798462 Z"/>
        </g>
    </g>
</svg>
