<?xml version="1.0" encoding="UTF-8"?>
<!-- Generated by Pixelmator Pro 3.3.2 -->
<svg width="56" height="56" viewBox="0 0 56 56" xmlns="http://www.w3.org/2000/svg" xmlns:xlink="http://www.w3.org/1999/xlink">
    <radialGradient id="radialGradient1" cx="44.697142" cy="39.498102" r="24.576254" fx="44.697142" fy="39.498102" gradientUnits="userSpaceOnUse">
        <stop offset="1e-05" stop-color="#00cacc" stop-opacity="1"/>
        <stop offset="1" stop-color="#048fce" stop-opacity="1"/>
    </radialGradient>
    <path id="Trac" fill="url(#radialGradient1)" fill-rule="evenodd" stroke="none" d="M 27.687946 17.659908 C 26.657949 17.779835 25.872437 18.618088 25.799419 19.675198 C 25.767929 20.130688 25.777807 20.161587 26.808079 22.818359 C 29.152067 28.86297 29.719944 30.317766 29.815447 30.522514 C 30.046833 31.018368 30.372194 31.484854 30.778702 31.903542 C 31.090637 32.224831 31.296375 32.397587 31.644327 32.630501 C 32.255863 33.03978 32.559341 33.152931 34.938965 33.859001 C 37.256977 34.546806 38.52338 35.003937 39.614662 35.546711 C 41.028412 36.249882 42.014805 37.049744 42.638729 37.998791 C 43.086384 38.679756 43.482853 39.900879 43.655357 41.130089 C 43.722805 41.610573 43.723248 42.672714 43.656178 43.107094 C 43.510632 44.04985 43.219925 44.839867 42.775215 45.500984 C 42.538696 45.85257 42.620991 45.793724 42.964855 45.36525 C 43.937988 44.152771 44.929291 42.080498 45.435123 40.201328 C 46.04726 37.92704 46.130539 35.484863 45.674747 33.173386 C 44.787132 28.672108 41.951504 24.787491 37.957794 22.601742 C 37.706871 22.464367 36.751091 21.962334 35.455326 21.28722 C 35.258705 21.184734 34.990589 21.04446 34.859509 20.975502 C 34.728424 20.906487 34.460312 20.766209 34.263687 20.66378 C 34.067062 20.561352 33.501041 20.26582 33.005852 20.007095 C 32.510662 19.748314 31.956591 19.458797 31.774536 19.363693 C 31.219591 19.073742 30.847244 18.878944 30.569635 18.733315 C 29.28566 18.059727 28.742174 17.787437 28.587244 17.740185 C 28.424728 17.690639 28.011889 17.627041 27.90831 17.635571 C 27.88648 17.637375 27.787323 17.648315 27.687946 17.659908 Z"/>
    <radialGradient id="radialGradient2" cx="13.847016" cy="50.046445" r="35.273052" fx="13.847016" fy="50.046445" gradientUnits="userSpaceOnUse">
        <stop offset="1e-05" stop-color="#00bbec" stop-opacity="1"/>
        <stop offset="1" stop-color="#2756a9" stop-opacity="1"/>
    </radialGradient>
    <path id="path1" fill="url(#radialGradient2)" stroke="none" d="M 30.487122 40.225063 C 30.41596 40.267281 30.316093 40.328423 30.265123 40.360851 C 30.214098 40.393333 30.100914 40.463825 30.013544 40.517586 C 29.692823 40.714844 28.839859 41.241539 28.106899 41.694954 C 27.625189 41.992943 27.553699 42.03735 26.94178 42.417923 C 26.723272 42.553764 26.490904 42.696938 26.425364 42.736095 C 26.359821 42.775253 26.079811 42.948063 25.803076 43.12011 C 25.52634 43.292103 25.043756 43.590694 24.730621 43.783577 C 24.417486 43.976406 23.85741 44.322632 23.486046 44.552921 C 23.114626 44.783157 22.626041 45.085087 22.40033 45.223827 C 22.174564 45.362518 21.966043 45.496498 21.936903 45.521545 C 21.893627 45.558731 19.885803 46.805115 18.878345 47.420189 C 18.113188 47.887276 17.228025 48.199703 16.321907 48.322422 C 15.900064 48.379517 15.10178 48.379734 14.681137 48.32275 C 13.540527 48.168423 12.489766 47.742134 11.589869 47.068821 C 11.236879 46.80468 10.57232 46.139244 10.318264 45.795479 C 9.719563 44.985497 9.332252 44.11668 9.13166 43.133617 C 9.085505 42.907372 9.041839 42.716351 9.034662 42.709023 C 9.015914 42.690044 9.049781 43.031788 9.110871 43.478584 C 9.174399 43.943264 9.309772 44.615372 9.455575 45.190197 C 10.583867 49.638748 13.794479 53.256985 18.140856 54.978439 C 19.392416 55.473907 20.655382 55.786175 22.029566 55.939297 C 22.545929 55.997265 24.007538 56.020233 24.546438 55.979218 C 27.017855 55.791641 29.169746 55.062656 31.377306 53.66457 C 31.573929 53.540047 31.943329 53.306641 32.198181 53.145805 C 32.453087 52.985023 32.774792 52.780602 32.913185 52.691628 C 33.051529 52.602592 33.218357 52.497429 33.283897 52.457947 C 33.349438 52.418407 33.480518 52.335884 33.575203 52.274467 C 33.669888 52.213112 34.075031 51.956295 34.475536 51.703804 L 36.077126 50.690063 L 36.627048 50.341976 L 36.646858 50.329453 L 36.707432 50.291119 L 36.736248 50.272854 L 37.141121 50.016586 L 38.540352 49.13092 C 40.323227 48.00824 40.85487 47.614109 41.683167 46.801014 C 42.028503 46.46212 42.549122 45.883522 42.574989 45.810078 C 42.580231 45.795147 42.672783 45.652084 42.780621 45.49218 C 43.218941 44.842216 43.511234 44.046024 43.656178 43.107094 C 43.723248 42.672714 43.722805 41.610573 43.655357 41.130089 C 43.524982 40.201111 43.228764 39.147392 42.909409 38.476425 C 42.385681 37.376228 41.27 36.376541 39.667267 35.571426 C 39.224743 35.349121 38.767754 35.145687 38.716732 35.148369 C 38.692554 35.149628 37.201096 36.063179 35.402393 37.178585 C 33.603691 38.293991 32.042595 39.262123 31.933397 39.330048 C 31.824142 39.398026 31.636469 39.51292 31.516302 39.585327 L 30.487122 40.225063 Z"/>
    <linearGradient id="linearGradient1" x1="15.461848" y1="0" x2="15.461848" y2="48.36557" gradientUnits="userSpaceOnUse">
        <stop offset="1e-05" stop-color="#00bbec" stop-opacity="1"/>
        <stop offset="1" stop-color="#2756a9" stop-opacity="1"/>
    </linearGradient>
    <path id="path2" fill="url(#linearGradient1)" stroke="none" d="M 9.007703 34.874054 L 9.015409 42.642689 L 9.115746 43.093803 C 9.429491 44.50425 9.973089 45.521164 10.918106 46.465675 C 11.362614 46.90995 11.702522 47.177811 12.18421 47.463448 C 13.203479 48.067905 14.300474 48.366116 15.502069 48.36557 C 16.760559 48.364914 17.849222 48.050354 18.971064 47.363205 C 19.160376 47.247269 19.902176 46.789585 20.619474 46.346123 L 21.923641 45.539867 L 21.923641 36.32267 L 21.923641 27.105476 L 21.92326 18.673431 C 21.922987 13.29393 21.913164 10.09914 21.896191 9.848511 C 21.78923 8.273453 21.131907 6.825493 20.0266 5.730267 C 19.68738 5.394138 19.397545 5.16964 18.534103 4.574211 C 18.104456 4.277897 17.317961 3.735092 16.786371 3.367985 C 16.254784 3.000851 15.378953 2.396049 14.840052 2.023952 C 14.301161 1.651882 13.532555 1.121017 13.132032 0.844292 C 12.297649 0.26778 12.232348 0.227684 11.980121 0.137245 C 11.652049 0.019638 11.304385 -0.023563 10.973852 0.012207 C 10.010476 0.116467 9.239279 0.813511 9.038819 1.761162 C 9.007625 1.9086 9.001878 3.87075 9.00148 14.520405 L 9.001031 27.105476 L 9 27.105476 L 9.007703 34.874054 Z"/>
</svg>
